<svg width="437" height="145" viewBox="0 0 437 145" fill="none" xmlns="http://www.w3.org/2000/svg">
<path fill-rule="evenodd" clip-rule="evenodd" d="M203.868 138.2C212.134 142.6 221.601 144.8 232.268 144.8C242.534 144.8 251.734 142.6 259.868 138.2C268.134 133.667 274.601 127.6 279.268 120C279.596 119.471 279.913 118.938 280.219 118.4H271C267.686 118.4 265 115.714 265 112.4C265 109.086 267.686 106.4 271 106.4H285.008C285.981 102.456 286.468 98.3225 286.468 94V50.6C286.468 41 284.134 32.4 279.468 24.8C274.801 17.0667 268.334 11 260.068 6.6C251.934 2.2 242.668 0 232.268 0C221.601 0 212.134 2.2 203.868 6.6C200.696 8.288 197.79 10.2213 195.148 12.3999H200C203.314 12.3999 206 15.0862 206 18.3999C206 21.7136 203.314 24.3999 200 24.3999H184.712C184.63 24.5328 184.549 24.6661 184.468 24.8C179.801 32.4 177.468 41 177.468 50.6V52.3999H192C195.314 52.3999 198 55.0862 198 58.3999C198 61.7136 195.314 64.3999 192 64.3999H177.468V94C177.468 103.6 179.801 112.267 184.468 120C189.134 127.6 195.601 133.667 203.868 138.2ZM243.068 113.4C239.868 115.133 236.268 116 232.268 116C228.134 116 224.334 115.133 220.868 113.4C217.534 111.533 214.868 109 212.868 105.8C210.868 102.6 209.868 99 209.868 95V49.6C209.868 45.6 210.868 42 212.868 38.8C214.868 35.6 217.534 33.1333 220.868 31.4C224.334 29.5333 228.134 28.6 232.268 28.6C236.268 28.6 239.868 29.5333 243.068 31.4C246.401 33.2667 249.068 35.8 251.068 39C253.068 42.0667 254.068 45.6 254.068 49.6V95C254.068 99 253.068 102.6 251.068 105.8C249.068 109 246.401 111.533 243.068 113.4Z" fill="white"/>
<rect x="256" y="118.4" width="48" height="12" rx="6" fill="white"/>
<rect x="178" y="0.399902" width="55" height="12" rx="6" fill="white"/>
<path fill-rule="evenodd" clip-rule="evenodd" d="M91.8082 113.2V142.4H124.208V113.2H142.008V85.1999H124.208V41.1999H91.8082V85.1999H61.0082C60.0749 85.1999 59.2749 84.9332 58.6082 84.3999C58.0749 83.8666 57.8082 83.1999 57.8082 82.3999C57.8082 81.7332 57.8749 81.1999 58.0082 80.7999C58.1415 80.3999 58.4082 79.8666 58.8082 79.1999L99.2082 2.3999H63.0082L38.6739 49.3999H47C50.3137 49.3999 53 52.0862 53 55.3999C53 58.7136 50.3137 61.3999 47 61.3999H32.4609L28.0082 69.9999C26.9415 72.2666 26.0749 74.7332 25.4082 77.3999C24.7415 80.0666 24.4082 82.7332 24.4082 85.3999C24.4082 90.4666 25.6749 95.1332 28.2082 99.3999C30.8749 103.533 34.4082 106.867 38.8082 109.4C43.3415 111.933 48.3415 113.2 53.8082 113.2H91.8082Z" fill="white"/>
<rect x="18" y="26.3999" width="42" height="12" rx="6" fill="white"/>
<rect x="100" y="130.4" width="42" height="12" rx="6" fill="white"/>
<circle cx="6" cy="32.3999" r="6" fill="white"/>
<circle cx="322" cy="14.3999" r="6" fill="white"/>
<circle cx="166" cy="6.3999" r="6" fill="white"/>
<circle cx="154" cy="136.4" r="6" fill="white"/>
<rect x="334" y="8.3999" width="42" height="12" rx="6" fill="white"/>
<rect x="413" y="63.3999" width="23" height="12" rx="6" fill="white"/>
<rect x="367" y="130.4" width="42" height="12" rx="6" fill="white"/>
<path fill-rule="evenodd" clip-rule="evenodd" d="M385.932 113.2V142.4H418.332V113.2H436.132V87.3999H408C404.686 87.3999 402 84.7136 402 81.3999C402 78.0862 404.686 75.3999 408 75.3999H418.332V41.1999H385.932V85.1999H355.132C354.199 85.1999 353.399 84.9332 352.732 84.3999C352.199 83.8666 351.932 83.1999 351.932 82.3999C351.932 81.7332 351.999 81.1999 352.132 80.7999C352.266 80.3999 352.532 79.8666 352.932 79.1999L393.332 2.3999H357.132L347.813 20.3999H355C358.314 20.3999 361 23.0862 361 26.3999C361 29.7136 358.314 32.3999 355 32.3999H341.6L322.132 69.9999C321.066 72.2666 320.199 74.7332 319.532 77.3999C318.866 80.0666 318.532 82.7332 318.532 85.3999C318.532 88.555 319.023 91.555 320.006 94.3999H340C343.314 94.3999 346 97.0862 346 100.4C346 103.714 343.314 106.4 340 106.4H328.574C329.918 107.501 331.37 108.501 332.932 109.4C337.466 111.933 342.466 113.2 347.932 113.2H385.932Z" fill="white"/>
</svg>
