<svg width="24" height="24" viewBox="0 0 24 24" fill="none" xmlns="http://www.w3.org/2000/svg">
<g id="ic-edit">
<path id="Vector" d="M5 19H6.09808L16.7962 8.30193L15.6981 7.20385L5 17.9019V19ZM4.80768 20C4.57884 20 4.38702 19.9226 4.2322 19.7678C4.0774 19.613 4 19.4212 4 19.1923V18.1519C4 17.9308 4.04359 17.7201 4.13078 17.5198C4.21794 17.3194 4.33397 17.1468 4.47885 17.0019L17.1808 4.28652C17.2832 4.19517 17.3963 4.12458 17.5201 4.07475C17.6439 4.02492 17.7729 4 17.9072 4C18.0416 4 18.1717 4.02115 18.2977 4.06345C18.4236 4.10577 18.5398 4.18205 18.6462 4.2923L19.7135 5.36537C19.8237 5.47179 19.899 5.58852 19.9394 5.71557C19.9798 5.84262 20 5.96968 20 6.09673C20 6.23224 19.9772 6.36189 19.9315 6.48568C19.8858 6.60946 19.8131 6.72257 19.7135 6.825L6.99808 19.5212C6.85321 19.666 6.6806 19.7821 6.48025 19.8692C6.27988 19.9564 6.06916 20 5.84808 20H4.80768ZM16.2375 7.76252L15.6981 7.20385L16.7962 8.30193L16.2375 7.76252Z" fill="#E0E0E0"/>
</g>
</svg>
