<svg width="58" height="58" viewBox="0 0 58 58" fill="none" xmlns="http://www.w3.org/2000/svg">
<path d="M18.4035 48.3334C17.3222 48.3334 16.4012 47.9531 15.6406 47.1925C14.88 46.4318 14.4997 45.5109 14.4997 44.4296V14.5001H13.2913C12.9474 14.5001 12.66 14.3846 12.4293 14.1538C12.1984 13.923 12.083 13.6356 12.083 13.2917C12.083 12.9478 12.1984 12.6604 12.4293 12.4296C12.66 12.1988 12.9474 12.0834 13.2913 12.0834H21.7497C21.7497 11.5845 21.9348 11.15 22.305 10.7798C22.6753 10.4095 23.1098 10.2244 23.6086 10.2244H34.3907C34.8895 10.2244 35.324 10.4095 35.6943 10.7798C36.0646 11.15 36.2497 11.5845 36.2497 12.0834H44.708C45.0519 12.0834 45.3393 12.1988 45.5701 12.4296C45.8009 12.6604 45.9163 12.9478 45.9163 13.2917C45.9163 13.6356 45.8009 13.923 45.5701 14.1538C45.3393 14.3846 45.0519 14.5001 44.708 14.5001H43.4997V44.4296C43.4997 45.5109 43.1194 46.4318 42.3588 47.1925C41.5981 47.9531 40.6771 48.3334 39.5959 48.3334H18.4035ZM41.083 14.5001H16.9163V44.4296C16.9163 44.8633 17.0558 45.2196 17.3346 45.4985C17.6134 45.7773 17.9697 45.9167 18.4035 45.9167H39.5959C40.0296 45.9167 40.3859 45.7773 40.6647 45.4985C40.9436 45.2196 41.083 44.8633 41.083 44.4296V14.5001ZM28.9997 31.9187L34.4279 37.3469C34.654 37.573 34.9313 37.6939 35.2597 37.7094C35.5882 37.7249 35.881 37.604 36.1381 37.3469C36.3953 37.0897 36.5239 36.8046 36.5239 36.4917C36.5239 36.1788 36.3953 35.8938 36.1381 35.6366L30.7099 30.2084L36.1381 24.7802C36.3643 24.554 36.4851 24.2767 36.5006 23.9483C36.5162 23.6199 36.3953 23.3271 36.1381 23.0699C35.881 22.8127 35.5959 22.6842 35.283 22.6842C34.9701 22.6842 34.685 22.8127 34.4279 23.0699L28.9997 28.4981L23.5715 23.0699C23.3453 22.8438 23.068 22.7229 22.7396 22.7074C22.4112 22.6919 22.1184 22.8127 21.8612 23.0699C21.604 23.3271 21.4754 23.6121 21.4754 23.9251C21.4754 24.238 21.604 24.523 21.8612 24.7802L27.2894 30.2084L21.8612 35.6366C21.635 35.8627 21.5142 36.14 21.4987 36.4685C21.4832 36.7969 21.604 37.0897 21.8612 37.3469C22.1184 37.604 22.4034 37.7326 22.7163 37.7326C23.0293 37.7326 23.3143 37.604 23.5715 37.3469L28.9997 31.9187Z" fill="white" fill-opacity="0.2"/>
</svg>
