<svg width="64" height="64" viewBox="0 0 64 64" fill="none" xmlns="http://www.w3.org/2000/svg">
<g clip-path="url(#clip0_214_427)">
<path d="M21.3335 51.6923V25.6256C21.3335 24.4324 21.7557 23.4188 22.6002 22.5846C23.4446 21.7504 24.4634 21.3333 25.6566 21.3333H51.6925C52.8857 21.3333 53.9019 21.753 54.7412 22.5923C55.5805 23.4316 56.0002 24.4478 56.0002 25.641V44.2051L44.2053 56H25.6412C24.448 56 23.4318 55.5803 22.5924 54.7411C21.7531 53.9017 21.3335 52.8855 21.3335 51.6923ZM8.06684 17.5897C7.83435 16.3966 8.06339 15.3222 8.75397 14.3667C9.44459 13.4111 10.3865 12.8171 11.5796 12.5846L37.231 8.06665C38.4241 7.83417 39.4985 8.06321 40.454 8.75379C41.4096 9.44441 42.0036 10.3863 42.2361 11.5795L42.8002 14.9743H40.1027L39.5335 11.7949C39.4652 11.4188 39.26 11.1196 38.9181 10.8975C38.5762 10.6752 38.2002 10.5983 37.7899 10.6667L12.0514 15.2359C11.5728 15.3043 11.2138 15.5265 10.9745 15.9025C10.7352 16.2786 10.6497 16.706 10.7181 17.1846L14.9745 41.2256V46.3897C14.366 46.0923 13.8489 45.6701 13.4232 45.1231C12.9976 44.5761 12.7181 43.9487 12.5848 43.2411L8.06684 17.5897ZM24.0002 25.641V51.6923C24.0002 52.1709 24.154 52.5641 24.4617 52.8718C24.7694 53.1795 25.1625 53.3333 25.6412 53.3333H42.6668V44.8205C42.6668 44.2017 42.8711 43.688 43.2796 43.2795C43.6882 42.8709 44.2019 42.6667 44.8207 42.6667H53.3335V25.641C53.3335 25.1624 53.1797 24.7692 52.872 24.4615C52.5643 24.1538 52.1711 24 51.6925 24H25.6412C25.1625 24 24.7694 24.1538 24.4617 24.4615C24.154 24.7692 24.0002 25.1624 24.0002 25.641Z" fill="#5A5E6C"/>
<circle cx="50.3164" cy="13.5" r="8.5" fill="#131418"/>
<path d="M50.6581 2.29602C44.3754 2.29602 39.2764 7.43906 39.2764 13.776C39.2764 20.113 44.3754 25.256 50.6581 25.256C56.9409 25.256 62.0399 20.113 62.0399 13.776C62.0399 7.43906 56.9409 2.29602 50.6581 2.29602ZM51.7963 19.516H49.52V17.22H51.7963V19.516ZM51.7963 14.924H49.52V8.03602H51.7963V14.924Z" fill="#5A5E6C"/>
</g>
<defs>
<clipPath id="clip0_214_427">
<rect width="64" height="64" fill="white"/>
</clipPath>
</defs>
</svg>
