<svg width="24" height="24" viewBox="0 0 24 24" fill="none" xmlns="http://www.w3.org/2000/svg">
<path d="M12.0086 13.5C11.1798 13.5 10.408 13.6926 9.69327 14.0779C8.97852 14.4631 8.39872 14.9987 7.95385 15.6846C7.84743 15.8487 7.83846 16.0064 7.92692 16.1577C8.01539 16.309 8.15193 16.3846 8.33653 16.3846C8.40149 16.3846 8.46037 16.3683 8.51315 16.3356C8.56592 16.3029 8.61474 16.2603 8.65963 16.2077C9.04296 15.6397 9.52437 15.1939 10.1038 14.8702C10.6833 14.5465 11.3154 14.3846 12 14.3846C12.6846 14.3846 13.3167 14.5465 13.8962 14.8702C14.4756 15.1939 14.957 15.6397 15.3404 16.2077C15.3814 16.2603 15.4283 16.3029 15.4811 16.3356C15.5339 16.3683 15.5927 16.3846 15.6577 16.3846C15.8423 16.3846 15.9789 16.3048 16.0673 16.1452C16.1558 15.9856 16.1468 15.8282 16.0404 15.6731C15.5955 14.991 15.0157 14.4583 14.301 14.075C13.5862 13.6917 12.8221 13.5 12.0086 13.5ZM15.3122 10.6154C15.6233 10.6154 15.8862 10.5065 16.101 10.2887C16.3157 10.071 16.4231 9.80656 16.4231 9.49547C16.4231 9.18439 16.3142 8.92147 16.0964 8.70672C15.8787 8.49199 15.6143 8.38463 15.3032 8.38463C14.9921 8.38463 14.7292 8.4935 14.5144 8.71125C14.2997 8.92902 14.1923 9.19344 14.1923 9.50453C14.1923 9.81561 14.3012 10.0785 14.519 10.2933C14.7367 10.508 15.0011 10.6154 15.3122 10.6154ZM8.69682 10.6154C9.00791 10.6154 9.27083 10.5065 9.48558 10.2887C9.70033 10.071 9.8077 9.80656 9.8077 9.49547C9.8077 9.18439 9.69882 8.92147 9.48105 8.70672C9.26328 8.49199 8.99886 8.38463 8.68777 8.38463C8.37669 8.38463 8.11378 8.4935 7.89903 8.71125C7.68429 8.92902 7.57692 9.19344 7.57692 9.50453C7.57692 9.81561 7.6858 10.0785 7.90355 10.2933C8.12132 10.508 8.38574 10.6154 8.69682 10.6154ZM12.0034 21C10.7588 21 9.58872 20.7638 8.4931 20.2915C7.39748 19.8192 6.44444 19.1782 5.63397 18.3685C4.82352 17.5588 4.18192 16.6066 3.70915 15.5121C3.23638 14.4175 3 13.2479 3 12.0034C3 10.7588 3.23616 9.58872 3.70848 8.4931C4.18081 7.39748 4.82183 6.44444 5.63153 5.63398C6.44123 4.82353 7.39337 4.18192 8.48795 3.70915C9.58255 3.23638 10.7521 3 11.9967 3C13.2412 3 14.4113 3.23616 15.5069 3.70847C16.6025 4.18081 17.5556 4.82182 18.366 5.63152C19.1765 6.44122 19.8181 7.39337 20.2908 8.48795C20.7636 9.58255 21 10.7521 21 11.9967C21 13.2412 20.7638 14.4113 20.2915 15.5069C19.8192 16.6025 19.1782 17.5556 18.3685 18.366C17.5588 19.1765 16.6066 19.8181 15.5121 20.2909C14.4175 20.7636 13.2479 21 12.0034 21ZM12 20C14.2333 20 16.125 19.225 17.675 17.675C19.225 16.125 20 14.2333 20 12C20 9.76667 19.225 7.875 17.675 6.325C16.125 4.775 14.2333 4 12 4C9.76667 4 7.875 4.775 6.325 6.325C4.775 7.875 4 9.76667 4 12C4 14.2333 4.775 16.125 6.325 17.675C7.875 19.225 9.76667 20 12 20Z" fill="#5A5E6C"/>
</svg>
