<svg width="32" height="32" viewBox="0 0 32 32" fill="none" xmlns="http://www.w3.org/2000/svg">
<path d="M10.6665 25.8462V12.8128C10.6665 12.2162 10.8776 11.7094 11.2998 11.2923C11.7221 10.8752 12.2315 10.6667 12.828 10.6667H25.846C26.4426 10.6667 26.9507 10.8765 27.3704 11.2961C27.79 11.7158 27.9998 12.2239 27.9998 12.8205V22.1026L22.1024 28H12.8203C12.2238 28 11.7156 27.7902 11.296 27.3705C10.8763 26.9509 10.6665 26.4427 10.6665 25.8462ZM4.03317 8.79487C3.91693 8.19829 4.03145 7.66111 4.37674 7.18334C4.72205 6.70556 5.193 6.40855 5.78957 6.2923L18.6152 4.03333C19.2118 3.91709 19.749 4.03161 20.2268 4.3769C20.7046 4.72221 21.0016 5.19316 21.1178 5.78974L21.3998 7.48717H20.0511L19.7665 5.89743C19.7323 5.70939 19.6298 5.55982 19.4588 5.44873C19.2879 5.33762 19.0998 5.29916 18.8947 5.33334L6.02547 7.61797C5.78616 7.65215 5.60668 7.76325 5.48701 7.95127C5.36736 8.13931 5.32463 8.35299 5.35881 8.5923L7.48701 20.6128V23.1949C7.18274 23.0462 6.9242 22.835 6.71137 22.5615C6.49855 22.288 6.35881 21.9744 6.29214 21.6205L4.03317 8.79487ZM11.9998 12.8205V25.8462C11.9998 26.0855 12.0768 26.2821 12.2306 26.4359C12.3845 26.5897 12.581 26.6667 12.8203 26.6667H21.3332V22.4103C21.3332 22.1009 21.4353 21.844 21.6396 21.6397C21.8439 21.4355 22.1007 21.3333 22.4101 21.3333H26.6665V12.8205C26.6665 12.5812 26.5896 12.3846 26.4357 12.2308C26.2819 12.0769 26.0853 12 25.846 12H12.8203C12.581 12 12.3845 12.0769 12.2306 12.2308C12.0768 12.3846 11.9998 12.5812 11.9998 12.8205Z" fill="#5A5E6C"/>
</svg>
