<svg width="20" height="20" viewBox="0 0 20 20" fill="none" xmlns="http://www.w3.org/2000/svg">
<path d="M6.66645 16.1539V8.00802C6.66645 7.63516 6.79839 7.31839 7.06228 7.05771C7.32617 6.79703 7.64454 6.66669 8.0174 6.66669H16.1536C16.5265 6.66669 16.8441 6.79783 17.1064 7.06011C17.3686 7.3224 17.4998 7.63997 17.4998 8.01284V13.8141L13.8139 17.5H8.01259C7.63973 17.5 7.32215 17.3689 7.05986 17.1066C6.79758 16.8443 6.66645 16.5267 6.66645 16.1539ZM2.52061 5.49681C2.44796 5.12395 2.51954 4.78822 2.73534 4.48961C2.95116 4.191 3.2455 4.00536 3.61836 3.93271L11.6344 2.52086C12.0073 2.4482 12.343 2.51978 12.6416 2.73559C12.9402 2.95141 13.1259 3.24575 13.1985 3.61861L13.3748 4.6795H12.5318L12.3539 3.68592C12.3326 3.56839 12.2685 3.47491 12.1616 3.40548C12.0548 3.33604 11.9373 3.312 11.8091 3.33336L3.7658 4.76125C3.61623 4.78261 3.50405 4.85205 3.42926 4.96957C3.35448 5.08709 3.32777 5.22064 3.34913 5.37021L4.67926 12.883V14.4968C4.48909 14.4039 4.3275 14.2719 4.19449 14.101C4.06147 13.9301 3.97413 13.734 3.93247 13.5129L2.52061 5.49681ZM7.49978 8.01284V16.1539C7.49978 16.3034 7.54786 16.4263 7.64401 16.5225C7.74016 16.6186 7.86302 16.6667 8.01259 16.6667H13.3331V14.0064C13.3331 13.8131 13.3969 13.6525 13.5246 13.5249C13.6523 13.3972 13.8128 13.3334 14.0062 13.3334H16.6664V8.01284C16.6664 7.86327 16.6184 7.7404 16.5222 7.64425C16.4261 7.5481 16.3032 7.50002 16.1536 7.50002H8.01259C7.86302 7.50002 7.74016 7.5481 7.64401 7.64425C7.54786 7.7404 7.49978 7.86327 7.49978 8.01284Z" fill="#5A5E6C"/>
</svg>
