<svg width="24" height="24" viewBox="0 0 24 24" fill="none" xmlns="http://www.w3.org/2000/svg">
<path d="M7.07692 16.0769C5.94897 16.0769 4.9875 15.6795 4.1925 14.8847C3.3975 14.0899 3 13.1287 3 12.0011C3 10.8734 3.3975 9.91186 4.1925 9.11635C4.9875 8.32083 5.94897 7.92307 7.07692 7.92307H10.1154C10.257 7.92307 10.3758 7.97106 10.4716 8.06702C10.5675 8.16297 10.6154 8.28188 10.6154 8.42375C10.6154 8.5656 10.5675 8.68428 10.4716 8.7798C10.3758 8.87532 10.257 8.92307 10.1154 8.92307H7.07465C6.23002 8.92307 5.50642 9.22436 4.90385 9.82692C4.30128 10.4295 4 11.1538 4 12C4 12.8461 4.30128 13.5705 4.90385 14.1731C5.50642 14.7756 6.23002 15.0769 7.07465 15.0769H10.1154C10.257 15.0769 10.3758 15.1249 10.4716 15.2209C10.5675 15.3168 10.6154 15.4357 10.6154 15.5776C10.6154 15.7195 10.5675 15.8381 10.4716 15.9336C10.3758 16.0292 10.257 16.0769 10.1154 16.0769H7.07692ZM9 12.5C8.85833 12.5 8.73958 12.452 8.64375 12.356C8.54792 12.2601 8.5 12.1412 8.5 11.9993C8.5 11.8575 8.54792 11.7388 8.64375 11.6433C8.73958 11.5478 8.85833 11.5 9 11.5H15C15.1417 11.5 15.2604 11.548 15.3563 11.6439C15.4521 11.7399 15.5 11.8588 15.5 12.0007C15.5 12.1425 15.4521 12.2612 15.3563 12.3567C15.2604 12.4522 15.1417 12.5 15 12.5H9ZM13.8846 16.0769C13.743 16.0769 13.6242 16.0289 13.5284 15.933C13.4325 15.837 13.3846 15.7181 13.3846 15.5762C13.3846 15.4344 13.4325 15.3157 13.5284 15.2202C13.6242 15.1247 13.743 15.0769 13.8846 15.0769H16.9253C17.77 15.0769 18.4936 14.7756 19.0962 14.1731C19.6987 13.5705 20 12.8461 20 12C20 11.1538 19.6987 10.4295 19.0962 9.82692C18.4936 9.22436 17.77 8.92307 16.9253 8.92307H13.8846C13.743 8.92307 13.6242 8.87509 13.5284 8.77912C13.4325 8.68317 13.3846 8.56427 13.3846 8.4224C13.3846 8.28053 13.4325 8.16185 13.5284 8.06635C13.6242 7.97083 13.743 7.92307 13.8846 7.92307H16.9231C18.051 7.92307 19.0125 8.32046 19.8075 9.11525C20.6025 9.91005 21 10.8713 21 11.9989C21 13.1266 20.6025 14.0881 19.8075 14.8836C19.0125 15.6792 18.051 16.0769 16.9231 16.0769H13.8846Z" fill="#484C58"/>
</svg>
