<svg width="65" height="64" viewBox="0 0 65 64" fill="none" xmlns="http://www.w3.org/2000/svg">
<g clip-path="url(#clip0_378_2202)">
<path d="M21.833 51.6924V25.6256C21.833 24.4325 22.2552 23.4188 23.0997 22.5846C23.9441 21.7505 24.9629 21.3334 26.1561 21.3334H52.192C53.3852 21.3334 54.4014 21.753 55.2408 22.5923C56.08 23.4316 56.4997 24.4479 56.4997 25.641V44.2052L44.7048 56H26.1407C24.9475 56 23.9313 55.5804 23.092 54.7411C22.2527 53.9018 21.833 52.8855 21.833 51.6924ZM8.56635 17.5898C8.33386 16.3966 8.56291 15.3223 9.25348 14.3667C9.94411 13.4112 10.886 12.8171 12.0791 12.5846L37.7305 8.06672C38.9236 7.83423 39.998 8.06327 40.9535 8.75385C41.9091 9.44447 42.5031 10.3864 42.7356 11.5795L43.2997 14.9744H40.6022L40.033 11.7949C39.9647 11.4188 39.7595 11.1197 39.4176 10.8975C39.0758 10.6753 38.6997 10.5984 38.2894 10.6667L12.5509 15.236C12.0723 15.3043 11.7134 15.5265 11.474 15.9026C11.2347 16.2787 11.1493 16.706 11.2176 17.1846L15.474 41.2257V46.3898C14.8655 46.0924 14.3484 45.6701 13.9227 45.1231C13.4971 44.5761 13.2176 43.9488 13.0843 43.2411L8.56635 17.5898ZM24.4997 25.641V51.6924C24.4997 52.171 24.6535 52.5642 24.9612 52.8719C25.2689 53.1795 25.6621 53.3334 26.1407 53.3334H43.1664V44.8206C43.1664 44.2018 43.3706 43.6881 43.7792 43.2795C44.1877 42.871 44.7014 42.6667 45.3202 42.6667H53.833V25.641C53.833 25.1624 53.6792 24.7693 53.3715 24.4616C53.0638 24.1539 52.6706 24 52.192 24H26.1407C25.6621 24 25.2689 24.1539 24.9612 24.4616C24.6535 24.7693 24.4997 25.1624 24.4997 25.641Z" fill="#5A5E6C"/>
<circle cx="50.8164" cy="13.5" r="8.5" fill="#131418"/>
<path d="M51.1572 2.29602C44.8744 2.29602 39.7754 7.43906 39.7754 13.776C39.7754 20.113 44.8744 25.256 51.1572 25.256C57.4399 25.256 62.5389 20.113 62.5389 13.776C62.5389 7.43906 57.4399 2.29602 51.1572 2.29602ZM52.2953 19.516H50.019V17.22H52.2953V19.516ZM52.2953 14.924H50.019V8.03602H52.2953V14.924Z" fill="#5A5E6C"/>
</g>
<defs>
<clipPath id="clip0_378_2202">
<rect width="64" height="64" fill="white" transform="translate(0.5)"/>
</clipPath>
</defs>
</svg>
